<svg version="1.1" viewbox="0 0 333 66" xmlns="http://www.w3.org/2000/svg">
  <g transform="matrix(.76941 0 0 .76941 22.165 -.46549)" fill="none" fill-rule="evenodd">
    <g fill-rule="nonzero">
      <path d="m38.336 36.557h26.838v29.033h-64.985v-29.201c0-19.749 16.035-35.784 35.784-35.784h29.201v28.864h-19.749c-3.882-1e-3 -7.089 3.206-7.089 7.088z" fill="#183264"/>
      <path d="m72.769 0.605v28.864h27.176c0 3.882-3.207 7.089-7.089 7.089h-20.086v29.032h29.201c19.749 0 35.784-16.035 35.784-35.784v-29.201z" fill="#0068b2"/>
      <g id="logo-text-elektromechanik" transform="translate(159,48)" fill="#183264">
        <polygon points="1.528 9.513 1.528 16.311 10.483 16.311 10.483 17.448 0.25 17.448 0.25 0.582 10.483 0.582 10.483 1.719 1.528 1.719 1.528 8.376 9.156 8.376 9.156 9.513"/>
        <path d="m14.049 14.487v-13.905h1.208v13.881c0 1.303 0.403 1.919 1.754 1.919h0.828v1.066h-1.042c-1.872 0-2.748-1.161-2.748-2.961z"/>
        <path d="m24.59 16.5c1.351 0 2.18-0.403 3.15-1.374l0.9 0.711c-1.161 1.16-2.227 1.753-4.122 1.753-3.15 0-4.856-2.037-4.856-5.851 0-3.695 1.706-5.85 4.572-5.85s4.571 2.06 4.571 5.567v0.544h-7.935c1e-3 2.913 1.28 4.5 3.72 4.5zm2.606-7.627c-0.497-1.208-1.634-1.919-2.961-1.919s-2.464 0.711-2.961 1.919c-0.261 0.734-0.332 1.042-0.403 2.156h6.727c-0.071-1.09-0.095-1.469-0.402-2.156z"/>
        <polygon points="39.536 6.03 41.076 6.03 37.309 10.293 41.904 17.447 40.412 17.447 36.48 11.17 33.875 14.179 33.875 17.448 32.667 17.448 32.667 0.582 33.875 0.582 33.875 12.473"/>
        <path d="m45.505 14.463v-7.533h-1.563v-0.899h1.563v-3.649h1.208v3.649h2.582v0.899h-2.582v7.557c0 1.208 0.544 1.895 1.753 1.895h0.829v1.066h-1.042c-1.801 0-2.748-1.256-2.748-2.985z"/>
        <path d="m57.089 6.954c-1.966 0-3.055 1.634-3.055 3.458v7.036h-1.208v-11.418h1.208v1.516c0.663-1.066 1.989-1.658 3.34-1.658 1.113 0 1.918 0.261 2.747 1.09l-0.876 0.876c-0.688-0.687-1.209-0.9-2.156-0.9z"/>
        <path d="m68.979 16.335c-0.829 0.828-1.871 1.255-3.174 1.255-1.278 0-2.344-0.427-3.173-1.255-1.208-1.208-1.422-2.962-1.422-4.596s0.214-3.387 1.422-4.595c0.829-0.829 1.895-1.255 3.173-1.255 1.303 0 2.345 0.426 3.174 1.255 1.208 1.208 1.422 2.961 1.422 4.595s-0.214 3.387-1.422 4.596zm-0.805-8.41c-0.64-0.64-1.445-0.972-2.369-0.972-0.923 0-1.729 0.332-2.368 0.972-0.948 0.948-1.019 2.487-1.019 3.813s0.071 2.867 1.019 3.814c0.64 0.64 1.445 0.972 2.368 0.972 0.924 0 1.73-0.332 2.369-0.972 0.947-0.948 1.019-2.488 1.019-3.814s-0.072-2.865-1.019-3.813z"/>
        <path d="m89.39 10.365c0-2.203-1.09-3.411-3.15-3.411-1.99 0-3.222 1.232-3.222 3.198v7.295h-1.207v-7.083c0-2.203-1.09-3.411-3.15-3.411-2.061 0-3.222 1.232-3.222 3.411v7.083h-1.207v-11.417h1.207v1.35c0.853-0.995 1.99-1.492 3.388-1.492 1.706 0 2.985 0.734 3.672 2.085 0.852-1.351 2.179-2.085 3.884-2.085 1.255 0 2.274 0.403 3.009 1.09 0.781 0.758 1.184 1.824 1.184 3.174v7.295h-1.184v-7.082z"/>
        <path d="m99.219 16.5c1.351 0 2.18-0.403 3.15-1.374l0.9 0.711c-1.161 1.16-2.227 1.753-4.122 1.753-3.15 0-4.856-2.037-4.856-5.851 0-3.695 1.706-5.85 4.572-5.85s4.571 2.06 4.571 5.567v0.544h-7.934c0 2.913 1.279 4.5 3.719 4.5zm2.606-7.627c-0.497-1.208-1.634-1.919-2.961-1.919-1.326 0-2.464 0.711-2.961 1.919-0.261 0.734-0.332 1.042-0.403 2.156h6.727c-0.07-1.09-0.094-1.469-0.402-2.156z"/>
        <path d="m111.72 17.59c-3.127 0-5.022-2.227-5.022-5.851s1.895-5.85 5.022-5.85c1.563 0 2.558 0.403 3.766 1.753l-0.829 0.758c-0.972-1.09-1.73-1.445-2.937-1.445-1.303 0-2.345 0.497-3.032 1.516-0.568 0.829-0.782 1.73-0.782 3.269 0 1.54 0.214 2.44 0.782 3.27 0.687 1.018 1.729 1.516 3.032 1.516 1.207 0 1.965-0.379 2.937-1.445l0.829 0.758c-1.208 1.348-2.203 1.751-3.766 1.751z"/>
        <path d="m126.69 10.365c0-2.203-1.09-3.411-3.151-3.411-2.06 0-3.221 1.232-3.221 3.411v7.083h-1.208v-16.866h1.208v6.798c0.852-0.995 1.965-1.492 3.363-1.492 2.63 0 4.217 1.611 4.217 4.264v7.295h-1.208z"/>
        <path d="m138.95 16.311c-0.971 0.972-1.871 1.279-3.481 1.279-1.705 0-2.63-0.285-3.364-1.043-0.544-0.544-0.829-1.374-0.829-2.226 0-2.085 1.492-3.293 3.979-3.293h3.695v-1.279c0-1.824-0.876-2.795-3.221-2.795-1.611 0-2.416 0.403-3.151 1.445l-0.876-0.758c0.971-1.35 2.156-1.753 4.028-1.753 3.032 0 4.429 1.351 4.429 3.743v7.817h-1.208v-1.137zm-3.552-4.312c-1.942 0-2.914 0.758-2.914 2.298 0 1.516 0.9 2.227 2.985 2.227 1.042 0 2.013-0.095 2.843-0.877 0.426-0.402 0.639-1.137 0.639-2.179v-1.469z"/>
        <path d="m152.5 10.365c0-2.203-1.09-3.411-3.151-3.411-2.06 0-3.221 1.232-3.221 3.411v7.083h-1.208v-11.418h1.208v1.35c0.852-0.995 1.965-1.492 3.363-1.492 1.255 0 2.274 0.355 3.032 1.09 0.782 0.758 1.185 1.824 1.185 3.174v7.295h-1.208z"/>
        <path d="m157.92 0.582h1.492v1.492h-1.492zm0.143 5.448h1.208v11.417h-1.208z"/>
        <polygon points="170.74 6.03 172.28 6.03 168.51 10.293 173.1 17.447 171.61 17.447 167.68 11.17 165.08 14.179 165.08 17.448 163.87 17.448 163.87 0.582 165.08 0.582 165.08 12.473"/>
      </g>
      <g id="logo-text-art" transform="translate(159)" fill="#183264">
        <path d="m17.746 23.729 3.882-10.803 3.713 10.803zm-2.026-22.787-15.529 36.628h12.491l1.857-5.233h13.841l1.857 5.233h12.997l-14.854-36.628z"/>
        <path d="m74.629 17.822c-0.675 0.844-1.688 1.182-3.038 1.182h-5.57v-8.777h5.57c1.35 0 2.363 0.338 3.038 1.182 0.675 0.675 1.013 1.857 1.013 3.207 0 1.349-0.338 2.362-1.013 3.206m11.141 3.207c1.013-2.026 1.519-4.22 1.519-6.921 0-4.22-1.35-7.427-4.051-9.79s-6.583-3.376-11.647-3.376h-17.723v36.628h12.153v-9.452h4.557l4.389 9.452h13.672l-7.258-11.984c1.857-1.013 3.376-2.532 4.389-4.557"/>
        <polygon points="127.29 10.395 127.29 0.942 94.378 0.942 94.378 10.395 104.68 10.395 104.68 37.57 116.83 37.57 116.83 10.395"/>
        <circle cx="44.757" cy="21.713" r="3.554"/>
        <circle cx="94.926" cy="21.713" r="3.554"/>
      </g>
    </g>
  </g>
</svg>
