<svg enable-background="new 0 0 841.89 595.28" version="1.1" viewBox="0 0 516.14 65.104" viewbox="0 0 516.14 65.095" xmlns="http://www.w3.org/2000/svg">
  <path d="m38.147 35.965h26.838v29.033h-64.985v-29.201c0-19.749 16.035-35.784 35.784-35.784h29.201v28.864h-19.749c-3.882-2e-3 -7.089 3.206-7.089 7.088z" fill="#183264"/>
  <path d="m72.581 0.012v28.864h27.176c0 3.882-3.207 7.089-7.089 7.089h-20.086v29.032h29.201c19.749 0 35.784-16.035 35.784-35.784v-29.201z" fill="#0068b2"/>
  <g transform="translate(-235.24 -264.54)">
    <g fill="#183264">
      <path d="m413.15 287.33 3.882-10.803 3.713 10.803zm-2.025-22.787-15.529 36.628h12.491l1.857-5.233h13.841l1.857 5.233h12.997l-14.854-36.628z"/>
      <path d="m470.04 281.43c-0.675 0.844-1.688 1.182-3.038 1.182h-5.57v-8.777h5.57c1.35 0 2.363 0.338 3.038 1.182 0.675 0.675 1.013 1.857 1.013 3.207s-0.338 2.363-1.013 3.206m11.14 3.208c1.013-2.026 1.519-4.22 1.519-6.921 0-4.22-1.35-7.427-4.051-9.79s-6.583-3.376-11.647-3.376h-17.723v36.628h12.153v-9.452h4.557l4.389 9.452h13.672l-7.258-11.984c1.857-1.013 3.376-2.532 4.389-4.557"/>
      <polygon points="500.08 301.18 512.23 301.18 512.23 274 522.7 274 522.7 264.55 489.78 264.55 489.78 274 500.08 274"/>
      <circle cx="440.16" cy="285.32" r="3.554"/>
      <circle cx="490.33" cy="285.32" r="3.554"/>
    </g>
    <g fill="#0068b2">
      <path d="m395.6 316.32h4.48c1.733 0.012 3.033 0.755 3.9 2.23 0.31 0.496 0.505 1.015 0.588 1.559 0.064 0.544 0.096 1.484 0.096 2.82 0 1.42-0.049 2.411-0.148 2.974-0.047 0.284-0.118 0.537-0.211 0.762-0.1 0.218-0.22 0.444-0.36 0.68-0.375 0.622-0.896 1.136-1.564 1.541-0.662 0.435-1.473 0.653-2.433 0.653h-4.347v-13.219zm1.938 11.334h2.321c1.09 0 1.881-0.385 2.374-1.154 0.218-0.285 0.355-0.645 0.413-1.081 0.053-0.43 0.08-1.235 0.08-2.417 0-1.151-0.027-1.975-0.08-2.471-0.069-0.497-0.236-0.899-0.5-1.208-0.54-0.769-1.302-1.142-2.287-1.118h-2.321z"/>
      <path d="m409.94 316.32h1.938v13.218h-1.938z"/>
      <path d="m417.42 316.32h8.179v1.885h-6.241v3.782h5.328v1.775h-5.328v3.891h6.241v1.885h-8.179z"/>
      <path d="m435.88 316.32h2.052l2.903 10.068h0.035l2.911-10.068h2.052l-4.226 13.218h-1.508z"/>
      <path d="m450.06 316.32h8.179v1.885h-6.241v3.782h5.328v1.775h-5.328v3.891h6.241v1.885h-8.179z"/>
      <path d="m463.03 316.32h5.002c1.067 0 1.937 0.29 2.611 0.87 0.811 0.658 1.235 1.598 1.269 2.819-0.023 1.796-0.847 3.017-2.471 3.663l2.963 5.866h-2.302l-2.651-5.65h-2.482v5.65h-1.938v-13.218zm1.939 5.794h2.941c0.727-0.012 1.274-0.23 1.637-0.655 0.358-0.393 0.537-0.878 0.537-1.454-0.012-0.691-0.226-1.191-0.643-1.5-0.329-0.273-0.804-0.409-1.426-0.409h-3.046z"/>
      <path d="m477.19 316.32h4.962c1.259 0.012 2.204 0.338 2.837 0.978 0.638 0.647 0.957 1.502 0.957 2.566 0.012 0.544-0.114 1.064-0.378 1.559-0.134 0.236-0.327 0.459-0.579 0.671-0.252 0.223-0.562 0.425-0.931 0.608v0.035c0.699 0.188 1.227 0.566 1.586 1.134 0.334 0.586 0.501 1.224 0.501 1.912-0.011 1.143-0.357 2.046-1.036 2.711-0.674 0.696-1.515 1.043-2.523 1.043h-5.396zm1.939 1.776v3.8h2.803c0.709 0 1.231-0.191 1.565-0.574 0.34-0.353 0.509-0.797 0.509-1.331 0-0.535-0.169-0.988-0.509-1.358-0.334-0.346-0.856-0.525-1.565-0.537zm0 5.575v3.982h2.992c0.722-0.012 1.251-0.215 1.585-0.61 0.334-0.387 0.502-0.848 0.502-1.381 0-0.545-0.168-1.012-0.502-1.4-0.334-0.381-0.863-0.578-1.585-0.591z"/>
      <path d="m491.23 316.32h1.939v13.218h-1.939z"/>
      <path d="m498.7 316.32h1.828l5.798 9.396h0.035v-9.396h1.938v13.218h-1.836l-5.789-9.397h-0.035v9.397h-1.939z"/>
      <path d="m514.12 316.32h4.48c1.733 0.012 3.033 0.755 3.9 2.23 0.31 0.496 0.505 1.015 0.588 1.559 0.064 0.544 0.096 1.484 0.096 2.82 0 1.42-0.049 2.411-0.148 2.974-0.047 0.284-0.118 0.537-0.211 0.762-0.1 0.218-0.22 0.444-0.36 0.68-0.375 0.622-0.896 1.136-1.564 1.541-0.662 0.435-1.473 0.653-2.433 0.653h-4.347v-13.219zm1.938 11.334h2.321c1.09 0 1.881-0.385 2.374-1.154 0.218-0.285 0.355-0.645 0.413-1.081 0.053-0.43 0.08-1.235 0.08-2.417 0-1.151-0.028-1.975-0.08-2.471-0.069-0.497-0.236-0.899-0.5-1.208-0.54-0.769-1.302-1.142-2.287-1.118h-2.321z"/>
      <path d="m528.53 316.32h1.937v8.529c0.012 0.902 0.265 1.588 0.757 2.06 0.48 0.496 1.099 0.744 1.855 0.744s1.381-0.248 1.874-0.744c0.48-0.473 0.726-1.158 0.738-2.06v-8.529h1.939v8.739c-0.023 1.391-0.459 2.493-1.309 3.31-0.855 0.84-1.935 1.266-3.242 1.278-1.282-0.012-2.354-0.437-3.214-1.277-0.879-0.815-1.324-1.917-1.335-3.306z"/>
      <path d="m543.39 316.32h1.827l5.798 9.396h0.035v-9.396h1.938v13.218h-1.836l-5.789-9.397h-0.035v9.397h-1.938z"/>
      <path d="m563.1 322.26h4.551v2.689c-0.023 1.322-0.462 2.43-1.317 3.323-0.859 0.887-1.942 1.343-3.247 1.367-1.007-0.024-1.846-0.278-2.519-0.762-0.685-0.465-1.182-1.003-1.492-1.613-0.093-0.2-0.178-0.39-0.254-0.571-0.07-0.188-0.13-0.423-0.176-0.708-0.088-0.532-0.132-1.553-0.132-3.064 0-1.535 0.044-2.563 0.132-3.082 0.093-0.52 0.236-0.94 0.43-1.26 0.31-0.61 0.808-1.154 1.492-1.632 0.673-0.484 1.512-0.731 2.519-0.744 1.235 0.013 2.242 0.39 3.02 1.134 0.778 0.749 1.269 1.677 1.475 2.782h-2.057c-0.158-0.534-0.445-0.99-0.862-1.367-0.434-0.358-0.96-0.543-1.582-0.555-0.456 0.012-0.849 0.105-1.177 0.281-0.334 0.181-0.604 0.409-0.809 0.681-0.253 0.285-0.42 0.652-0.501 1.099-0.093 0.473-0.141 1.36-0.141 2.663s0.047 2.184 0.141 2.644c0.082 0.459 0.249 0.832 0.501 1.117 0.206 0.273 0.475 0.495 0.81 0.664 0.327 0.2 0.721 0.3 1.178 0.3 0.757 0 1.381-0.267 1.874-0.8 0.492-0.51 0.745-1.179 0.757-2.01v-0.691h-2.613v-1.885z"/>
      <path d="m579.64 326.33c1.02 0.866 2.233 1.306 3.639 1.318 1.664-0.024 2.508-0.638 2.532-1.842 0.011-0.987-0.545-1.579-1.669-1.779-0.515-0.073-1.08-0.154-1.696-0.245-1.101-0.187-1.938-0.608-2.512-1.26-0.591-0.671-0.887-1.489-0.887-2.451 0-1.155 0.371-2.087 1.114-2.795 0.72-0.702 1.74-1.058 3.062-1.071 1.591 0.037 2.975 0.492 4.151 1.366l-1.081 1.646c-0.96-0.654-2.018-0.993-3.171-1.018-0.598 0-1.096 0.154-1.493 0.463-0.417 0.321-0.63 0.799-0.642 1.434 0 0.38 0.143 0.725 0.431 1.034 0.287 0.314 0.746 0.532 1.378 0.653 0.352 0.06 0.832 0.131 1.441 0.209 1.201 0.169 2.088 0.614 2.662 1.334 0.568 0.708 0.852 1.531 0.852 2.468-0.064 2.529-1.562 3.811-4.492 3.847-1.896 0-3.524-0.601-4.887-1.804z"/>
      <path d="m595.41 318.09h-3.509v-1.776h8.958v1.776h-3.511v11.442h-1.938z"/>
      <path d="m605.39 316.32h1.938v13.218h-1.938z"/>
      <path d="m612.87 316.32h1.826l3.671 8.616 3.601-8.616h1.833v13.218h-1.938v-8.244h-0.044l-2.679 6.348h-1.618l-2.679-6.348h-0.035v8.244h-1.938z"/>
      <path d="m629.78 316.32h1.826l3.672 8.616 3.601-8.616h1.833v13.218h-1.939v-8.244h-0.044l-2.679 6.348h-1.618l-2.679-6.348h-0.035v8.244h-1.938z"/>
      <path d="m649.31 318.09h-3.509v-1.776h8.958v1.776h-3.511v11.442h-1.938z"/>
    </g>
    <g fill="#183264">
      <path d="m537.88 280.34h12.64v1.404h-11.061v8.222h9.422v1.404h-9.422v8.397h11.061v1.404h-12.64z"/>
      <path d="m554.92 297.52v-17.175h1.492v17.145c0 1.61 0.498 2.37 2.166 2.37h1.023v1.316h-1.287c-2.311 1e-3 -3.394-1.433-3.394-3.656z"/>
      <path d="m567.94 300c1.668 0 2.692-0.498 3.891-1.697l1.112 0.878c-1.434 1.433-2.751 2.165-5.091 2.165-3.891 0-5.998-2.517-5.998-7.228 0-4.564 2.107-7.226 5.647-7.226s5.646 2.545 5.646 6.876v0.673h-9.801c1e-3 3.598 1.581 5.559 4.594 5.559zm3.219-9.421c-0.614-1.492-2.019-2.37-3.657-2.37s-3.043 0.878-3.657 2.37c-0.322 0.907-0.41 1.287-0.498 2.663h8.309c-0.087-1.347-0.117-1.815-0.497-2.663z"/>
      <path d="m582.63 293.42-3.218 3.717v4.037h-1.492v-20.832h1.492v14.688l6.992-7.958h1.902l-4.653 5.266 5.676 8.836h-1.843z"/>
      <path d="m593.78 297.49v-9.305h-1.931v-1.111h1.931v-4.507h1.492v4.507h3.189v1.111h-3.189v9.334c0 1.492 0.673 2.341 2.165 2.341h1.024v1.316h-1.287c-2.224 1e-3 -3.394-1.549-3.394-3.686z"/>
      <path d="m608.08 288.21c-2.429 0-3.774 2.019-3.774 4.271v8.69h-1.492v-14.102h1.492v1.873c0.819-1.316 2.457-2.048 4.125-2.048 1.375 0 2.369 0.322 3.393 1.346l-1.082 1.082c-0.848-0.849-1.492-1.112-2.662-1.112z"/>
      <path d="m622.77 299.8c-1.024 1.023-2.311 1.551-3.921 1.551-1.579 0-2.896-0.527-3.92-1.551-1.492-1.492-1.756-3.658-1.756-5.677s0.264-4.184 1.756-5.676c1.024-1.024 2.341-1.551 3.92-1.551 1.61 0 2.897 0.526 3.921 1.551 1.492 1.492 1.756 3.657 1.756 5.676s-0.264 4.184-1.756 5.677zm-0.995-10.387c-0.79-0.79-1.785-1.2-2.926-1.2s-2.135 0.41-2.925 1.2c-1.17 1.17-1.258 3.071-1.258 4.71 0 1.638 0.088 3.541 1.258 4.711 0.79 0.79 1.785 1.2 2.925 1.2 1.142 0 2.136-0.41 2.926-1.2 1.17-1.17 1.258-3.073 1.258-4.711 0-1.639-0.088-3.54-1.258-4.71z"/>
      <path d="m647.98 292.43c0-2.721-1.346-4.213-3.891-4.213-2.458 0-3.98 1.522-3.98 3.951v9.011h-1.491v-8.748c0-2.721-1.346-4.213-3.891-4.213-2.546 0-3.98 1.522-3.98 4.213v8.748h-1.491v-14.102h1.491v1.667c1.054-1.229 2.458-1.843 4.185-1.843 2.107 0 3.687 0.907 4.535 2.575 1.053-1.668 2.691-2.575 4.798-2.575 1.551 0 2.809 0.498 3.716 1.346 0.965 0.936 1.463 2.253 1.463 3.921v9.011h-1.463v-8.749z"/>
      <path d="m660.12 300c1.668 0 2.692-0.498 3.891-1.697l1.112 0.878c-1.434 1.433-2.751 2.165-5.091 2.165-3.891 0-5.998-2.517-5.998-7.228 0-4.564 2.107-7.226 5.647-7.226s5.646 2.545 5.646 6.876v0.673h-9.801c0 3.598 1.58 5.559 4.594 5.559zm3.218-9.421c-0.614-1.492-2.019-2.37-3.657-2.37s-3.043 0.878-3.657 2.37c-0.322 0.907-0.41 1.287-0.498 2.663h8.309c-0.087-1.347-0.116-1.815-0.497-2.663z"/>
      <path d="m675.56 301.35c-3.863 0-6.203-2.751-6.203-7.228 0-4.476 2.341-7.226 6.203-7.226 1.931 0 3.159 0.498 4.652 2.165l-1.024 0.936c-1.2-1.346-2.136-1.785-3.628-1.785-1.61 0-2.897 0.614-3.745 1.873-0.702 1.024-0.966 2.136-0.966 4.037 0 1.902 0.264 3.014 0.966 4.039 0.848 1.257 2.135 1.873 3.745 1.873 1.491 0 2.427-0.468 3.628-1.785l1.024 0.936c-1.492 1.667-2.721 2.165-4.652 2.165z"/>
      <path d="m694.05 292.43c0-2.721-1.346-4.213-3.892-4.213-2.545 0-3.978 1.522-3.978 4.213v8.748h-1.492v-20.832h1.492v8.397c1.053-1.229 2.427-1.843 4.154-1.843 3.248 0 5.209 1.99 5.209 5.267v9.011h-1.492v-8.748z"/>
      <path d="m709.2 299.77c-1.199 1.2-2.311 1.58-4.3 1.58-2.107 0-3.248-0.352-4.155-1.288-0.673-0.673-1.024-1.697-1.024-2.749 0-2.576 1.843-4.067 4.915-4.067h4.564v-1.58c0-2.253-1.082-3.453-3.978-3.453-1.99 0-2.985 0.498-3.892 1.785l-1.082-0.936c1.2-1.667 2.663-2.165 4.975-2.165 3.745 0 5.47 1.668 5.47 4.623v9.655h-1.492v-1.405zm-4.388-5.325c-2.399 0-3.599 0.936-3.599 2.839 0 1.873 1.112 2.751 3.687 2.751 1.287 0 2.487-0.118 3.511-1.084 0.526-0.497 0.789-1.404 0.789-2.691v-1.814h-4.388z"/>
      <path d="m725.93 292.43c0-2.721-1.346-4.213-3.892-4.213-2.545 0-3.978 1.522-3.978 4.213v8.748h-1.492v-14.102h1.492v1.667c1.053-1.229 2.428-1.843 4.154-1.843 1.551 0 2.809 0.438 3.745 1.346 0.966 0.936 1.464 2.253 1.464 3.921v9.011h-1.492v-8.748z"/>
      <path d="m732.63 280.34h1.843v1.843h-1.843zm0.176 6.73h1.492v14.102h-1.492z"/>
      <path d="m744.68 293.42-3.219 3.717v4.037h-1.491v-20.832h1.491v14.688l6.993-7.958h1.901l-4.652 5.266 5.676 8.836h-1.843z"/>
    </g>
  </g>
</svg>
